inDegrees=no
num_controls=7
num_derivatives=13
num_iterations=208
num_multipliers=7
num_parameters=0
num_slacks=7
num_states=26
objective=5.553983
objective_accelerations=0.300453
objective_balance=0.016322
objective_effort=0.335036
objective_height=4.786849
objective_ligament=0.115323
solver_duration=1734.959056
status=Solve_Succeeded
success=true
DataType=double
version=3
OpenSimVersion=4.4-2022-07-23-0e9fedc
endheader
time	/jointset/ground_pelvis/pelvis_tilt/value	/jointset/ground_pelvis/pelvis_tx/value	/jointset/ground_pelvis/pelvis_ty/value	/jointset/hip_r/hip_flexion_r/value	/jointset/hip_r/hip_adduction_r/value	/jointset/hip_r/hip_rotation_r/value	/jointset/back/lumbar_extension/value	/jointset/patellofemoral_r/patellar_flexion_r/value	/jointset/knee_r/knee_flexion_r/value	/jointset/knee_r/knee_adduction_r/value	/jointset/knee_r/knee_rotation_r/value	/jointset/ankle_r/ankle_angle_r/value	/jointset/subtalar_r/subtalar_angle_r/value	/jointset/ground_pelvis/pelvis_tilt/speed	/jointset/ground_pelvis/pelvis_tx/speed	/jointset/ground_pelvis/pelvis_ty/speed	/jointset/hip_r/hip_flexion_r/speed	/jointset/hip_r/hip_adduction_r/speed	/jointset/hip_r/hip_rotation_r/speed	/jointset/back/lumbar_extension/speed	/jointset/patellofemoral_r/patellar_flexion_r/speed	/jointset/knee_r/knee_flexion_r/speed	/jointset/knee_r/knee_adduction_r/speed	/jointset/knee_r/knee_rotation_r/speed	/jointset/ankle_r/ankle_angle_r/speed	/jointset/subtalar_r/subtalar_angle_r/speed	/forceset/tau_hip_flexion_r	/forceset/tau_hip_adduction_r	/forceset/tau_hip_rotation_r	/forceset/tau_knee_flexion_r	/forceset/tau_ankle_angle_r	/forceset/tau_subtalar_angle_r	/forceset/tau_lumbar_extension	lambda_cid13_p0	lambda_cid14_p0	lambda_cid14_p1	lambda_cid14_p2	lambda_cid14_p3	lambda_cid14_p4	lambda_cid14_p5	/jointset/ground_pelvis/pelvis_tilt/accel	/jointset/ground_pelvis/pelvis_tx/accel	/jointset/ground_pelvis/pelvis_ty/accel	/jointset/hip_r/hip_flexion_r/accel	/jointset/hip_r/hip_adduction_r/accel	/jointset/hip_r/hip_rotation_r/accel	/jointset/back/lumbar_extension/accel	/jointset/patellofemoral_r/patellar_flexion_r/accel	/jointset/knee_r/knee_flexion_r/accel	/jointset/knee_r/knee_adduction_r/accel	/jointset/knee_r/knee_rotation_r/accel	/jointset/ankle_r/ankle_angle_r/accel	/jointset/subtalar_r/subtalar_angle_r/accel	gamma_cid13_p0	gamma_cid14_p0	gamma_cid14_p1	gamma_cid14_p2	gamma_cid14_p3	gamma_cid14_p4	gamma_cid14_p5
0	-0.003396785526843392	0.1296738396542234	0.9339263950897538	0.1934208783645156	-0.2217069903212406	-0.2466863779333683	-0.2903791543005566	0.2311793314021637	0.2311793314021609	0.1178914523214708	0.1743517265739058	0.08934340440958972	0.07197724902055487	0	0	0	0	0	0	0	0	0	0	0	0	0	0.1070854820243543	-0.06770834287201462	-0.0001587161889980994	-0.248190361600149	0.1202046974219423	-0.06593467488260803	-0.02437662584958977	-29.93029795715405	-7.535416885549074	-24.89217412718083	-1.392339432213215	2.23969550143524	-624.0731616478981	59.90252108755252	-1.670149527865419	-1.674808305053835	-0.6014420521017683	7.633880534564482	0.1280150517145303	1.555654718646482	-6.061252071003438	6.682681207704221	6.682681207704735	-2.049194570969058	0.07690922497987372	1.227418558049485	0.5015692037563816	2.19821140265716e-08	1.751694040082646e-08	-1.398980635440994e-07	1.107024906489771e-07	3.006776480918878e-09	8.243461329724838e-08	-1.202770382243374e-07
0.01	-0.003475774205056105	0.1295912182978355	0.9338971928952289	0.193792785012864	-0.2216994792424027	-0.2466085172007841	-0.2906820302547707	0.2315066379664376	0.2315066379664336	0.1177885656568746	0.1743531159287981	0.08940350312922113	0.07200332400453503	-0.01573213761352997	-0.01643219526833396	-0.005820389749782217	0.07401378275526099	0.001475197112504244	0.01551143942290301	-0.0601619167878299	0.06514319844401001	0.0651431984440083	-0.02042849030361378	0.0002666772757460802	0.01196764818809718	0.005167247108664889	0.1028405565533248	-0.07187154855868889	0.0001770684459349661	-0.2439526960621681	0.1141147188511426	-0.06022033507491932	-0.02058040990082328	-29.93359203138669	-9.212158460295488	-22.54745936531215	-1.944983119497487	2.448693471683551	-625.3320819370131	64.35165072154611	-1.514906592450624	-1.613613135295506	-0.5693135761959798	7.229995932675135	0.1532154521360571	1.539805278783933	-5.931670374173839	6.382417604804774	6.382417604804257	-2.017362498687142	-0.0001100044325171266	1.173627436433832	0.5171309518712823	2.860272619618159e-08	1.432823659990926e-08	-1.676759172669286e-07	1.255496982877825e-07	1.088736119796058e-08	2.277091669370839e-08	-1.378415050510096e-07
0.02	-0.003710116402281439	0.1293470373892498	0.9338103915752503	0.1948938032460966	-0.2216780275102155	-0.2463773587290371	-0.2915741271551648	0.2324758322035601	0.2324758322035619	0.1174858568415158	0.1743568406597945	0.08958171622818205	0.07207963715709177	-0.0310707038011931	-0.03231191043958278	-0.01151982509073683	0.1458223169772553	0.002788130669713338	0.0306595478326736	-0.1178441892356893	0.1283775345702353	0.1283775345702303	-0.03996443015241122	0.0004670752193125519	0.02362287586595252	0.01004763371531846	0.09859563108231426	-0.07603475424535983	0.0005128530809069609	-0.2397150305241816	0.1080247402803459	-0.05450599526722615	-0.0167841939520461	-29.94320778448733	-10.83737081386381	-20.20579651516471	-2.483348017132876	2.71915639529396	-625.7419431252634	68.60844215614252	-1.591435242691927	-1.564312285636918	-0.5772511703362401	7.192830827911149	0.09556234065549261	1.482988516019999	-5.565323203009267	6.30090874414729	6.300908744147493	-1.870684480005775	0.0636533585439657	1.164934456000994	0.4441971033540718	3.522333836579157e-08	1.113953279899206e-08	-1.954537709897579e-07	1.403969059265879e-07	1.876794591500227e-08	-3.68927799098316e-08	-1.554059718776819e-07
0.03	-0.004096139476915773	0.128946735376127	0.9336670306160585	0.196702342564653	-0.221644462695894	-0.2459970274458264	-0.2930307100873413	0.2340680460184968	0.2340680460184976	0.1169926711421505	0.1743627829093322	0.08987478465505319	0.07220304013201838	-0.04606679345914428	-0.04766433536676027	-0.01714459914490485	0.2155320345333995	0.003892767674593584	0.04533384402108818	-0.173094820958364	0.1897585239975031	0.189758523997503	-0.05850941459705795	0.0007179345951331707	0.03492979123130608	0.01457706070095359	0.09393458658007572	-0.07213593314170444	0.0007879412467419924	-0.2354305846817259	0.1035785240769037	-0.05480812798731851	-0.01278087369828909	-29.95880645077738	-12.28453293600136	-20.55695230093987	-2.465570040544923	3.045918761336158	-626.1957916385556	67.03391760268956	-1.443624737219914	-1.508080288374644	-0.5539330021557916	6.8070179243652	0.1131000551392198	1.448749571169879	-5.448296720476792	6.010681307701123	6.010681307701755	-1.821929124187371	0.005314372324208692	1.104422428308083	0.4489163001901683	3.560603179753549e-08	6.911307612679699e-09	-1.850827462313738e-07	1.336282093088709e-07	2.220244796261654e-08	-8.703615347237724e-08	-1.45028392867209e-07
0.04	-0.004630109230111688	0.1283954345753091	0.9334676534204854	0.1991973741997456	-0.2216008143765755	-0.2454721333205477	-0.2950284720494622	0.2362648671808436	0.2362648671808446	0.116318930858838	0.174371136181674	0.09027909270587882	0.07237005753760573	-0.06066003951200267	-0.06251166797861327	-0.02272307236700971	0.2831207802855149	0.004804831668869677	0.05957211624620955	-0.2260799952242351	0.2492990040521542	0.2492990040521576	-0.07607534694143406	0.0009492797798781065	0.04587080065687987	0.01877051984746533	0.08927354207783753	-0.06823711203804878	0.001063029412583997	-0.2311461388392713	0.09913230787346101	-0.05511026070741085	-0.008777553444533161	-29.97983085701781	-13.6846399245402	-20.91114875435306	-2.434422919277808	3.423795759021826	-625.8762339852753	65.28554472058153	-1.510866521673256	-1.463293822572118	-0.5679910039236039	6.768636467105365	0.0570477385346548	1.39578372336136	-5.112231711648463	5.932806869623934	5.932806869623907	-1.674874059951638	0.05975052032884109	1.091753268044931	0.3770035355293526	3.586010834808628e-08	2.661648995740634e-09	-1.739251466589441e-07	1.264138239435967e-07	2.554527820261376e-08	-1.3698323171449e-07	-1.340746892003001e-07
0.05	-0.005308350763962946	0.1276982390822204	0.9332125853597741	0.2023580759505537	-0.221549085521118	-0.2448073474668214	-0.297544482253113	0.2390480390297092	0.2390480390297124	0.1154745892529454	0.1743820020538788	0.09079103079489369	0.07257725827457229	-0.0749265930641963	-0.07683695263761051	-0.02829138982966474	0.3486684244860954	0.005521623228706108	0.07330925889348827	-0.2767481906676071	0.3070279071811024	0.3070279071810996	-0.09265135153503583	0.001207567290719423	0.05646467914931236	0.022632606371693	0.08441988958398464	-0.06665909964145257	0.001357652423100139	-0.2275062512636935	0.0950005033194786	-0.05340089922983771	-0.00462441573657228	-30.00571602226724	-14.87842341183848	-20.33754665591679	-2.571845163145596	3.505471188568249	-625.7811303772617	65.50044079889607	-1.37529270797836	-1.403568951516963	-0.5514074258436856	6.395159923654974	0.07609511392399296	1.351335998388438	-4.988035234721325	5.646806079477916	5.646806079477045	-1.627735489231937	0.006443826677214818	1.03538884244151	0.3852459177337961	3.303170333847402e-08	-2.005247398776354e-09	-1.435136811017212e-07	1.115278267542471e-07	2.683533323190138e-08	-1.791920592885471e-07	-1.118773881959542e-07
0.06	-0.006127406420539709	0.126860506109751	0.9329018030627548	0.2061637204487877	-0.2214907687002179	-0.2440074588940263	-0.3005559587660068	0.2423992747188566	0.2423992747188593	0.1144687332350807	0.1743949659932322	0.09140734440935273	0.07282196681815399	-0.08882286405580869	-0.09061916385476014	-0.03386591962860125	0.4121093297715038	0.006122424757176853	0.08659266005985887	-0.3251732570725577	0.3629117721079564	0.3629117721079475	-0.1083782293353367	0.001368893210178812	0.06674590574570775	0.02627208117049301	0.07956623709013326	-0.065081087244859	0.001652275433603649	-0.223866363688116	0.09086869876549455	-0.0516915377522681	-0.0004712780286098094	-30.03567630697302	-16.02941391901354	-19.76583165063351	-2.698252409709353	3.626367084305558	-624.9910007112416	65.56519272669179	-1.436810009556905	-1.354679134202682	-0.5692334711798972	6.347288684070946	0.03384973226151051	1.305035427179743	-4.663605903964131	5.563799229205097	5.563799229205075	-1.505048701291443	0.04035820205246594	1.029222888837414	0.3324811904437846	3.007350963159174e-08	-6.689711699717673e-09	-1.122915264504016e-07	9.631881433019967e-08	2.803895562073807e-08	-2.210750657818439e-07	-8.920667256687417e-08
